<mxfile host="app.diagrams.net" modified="2025-02-12T07:23:35.175Z" agent="Mozilla/5.0 (Windows NT 10.0; Win64; x64) AppleWebKit/537.36 (KHTML, like Gecko) Chrome/133.0.0.0 Safari/537.36" etag="f22Mp7lNhG2qkFU6Y_zS" version="24.4.9" type="device">
  <diagram name="Page-1" id="CLaLyPfZNyKvbbVyZDcb">
    <mxGraphModel dx="1889" dy="983" grid="1" gridSize="10" guides="1" tooltips="1" connect="1" arrows="1" fold="1" page="1" pageScale="1" pageWidth="1169" pageHeight="827" math="0" shadow="0">
      <root>
        <mxCell id="0" />
        <mxCell id="1" parent="0" />
        <mxCell id="WU6ywwRd1tSLRIyLuIMa-19" style="edgeStyle=orthogonalEdgeStyle;rounded=0;orthogonalLoop=1;jettySize=auto;html=1;entryX=0.5;entryY=0;entryDx=0;entryDy=0;" edge="1" parent="1" source="WU6ywwRd1tSLRIyLuIMa-2" target="WU6ywwRd1tSLRIyLuIMa-16">
          <mxGeometry relative="1" as="geometry" />
        </mxCell>
        <mxCell id="WU6ywwRd1tSLRIyLuIMa-2" value="Start" style="strokeWidth=2;html=1;shape=mxgraph.flowchart.start_1;whiteSpace=wrap;" vertex="1" parent="1">
          <mxGeometry x="160" y="40" width="100" height="60" as="geometry" />
        </mxCell>
        <mxCell id="WU6ywwRd1tSLRIyLuIMa-9" style="edgeStyle=orthogonalEdgeStyle;rounded=0;orthogonalLoop=1;jettySize=auto;html=1;exitX=0.5;exitY=1;exitDx=0;exitDy=0;entryX=0.5;entryY=0;entryDx=0;entryDy=0;" edge="1" parent="1" source="WU6ywwRd1tSLRIyLuIMa-3">
          <mxGeometry relative="1" as="geometry">
            <mxPoint x="209.99999999999977" y="280" as="targetPoint" />
          </mxGeometry>
        </mxCell>
        <mxCell id="WU6ywwRd1tSLRIyLuIMa-3" value="input angka1, angka2,&amp;nbsp;&lt;div&gt;angka3, angka4, angka5&lt;/div&gt;" style="shape=parallelogram;html=1;strokeWidth=2;perimeter=parallelogramPerimeter;whiteSpace=wrap;rounded=1;arcSize=12;size=0.23;" vertex="1" parent="1">
          <mxGeometry x="75" y="200" width="270" height="60" as="geometry" />
        </mxCell>
        <mxCell id="WU6ywwRd1tSLRIyLuIMa-14" value="Cetak&amp;nbsp;" style="strokeWidth=2;html=1;shape=mxgraph.flowchart.display;whiteSpace=wrap;" vertex="1" parent="1">
          <mxGeometry x="630" y="520" width="100" height="60" as="geometry" />
        </mxCell>
        <mxCell id="WU6ywwRd1tSLRIyLuIMa-23" style="edgeStyle=orthogonalEdgeStyle;rounded=0;orthogonalLoop=1;jettySize=auto;html=1;entryX=0.5;entryY=0;entryDx=0;entryDy=0;" edge="1" parent="1" source="WU6ywwRd1tSLRIyLuIMa-16" target="WU6ywwRd1tSLRIyLuIMa-3">
          <mxGeometry relative="1" as="geometry" />
        </mxCell>
        <mxCell id="WU6ywwRd1tSLRIyLuIMa-16" value="let angka1, angka2, angka3, angka4, angka5 =&amp;nbsp;float&lt;div&gt;operator = string, total = float, hasil = string&lt;/div&gt;" style="rounded=1;whiteSpace=wrap;html=1;" vertex="1" parent="1">
          <mxGeometry x="50" y="120" width="320" height="60" as="geometry" />
        </mxCell>
        <mxCell id="WU6ywwRd1tSLRIyLuIMa-41" style="edgeStyle=orthogonalEdgeStyle;rounded=0;orthogonalLoop=1;jettySize=auto;html=1;" edge="1" parent="1" source="WU6ywwRd1tSLRIyLuIMa-24" target="WU6ywwRd1tSLRIyLuIMa-14">
          <mxGeometry relative="1" as="geometry" />
        </mxCell>
        <mxCell id="WU6ywwRd1tSLRIyLuIMa-24" value="tambah angka1, angka2,&amp;nbsp;&lt;div&gt;angka3, angka4, angka5&lt;/div&gt;" style="shape=process;whiteSpace=wrap;html=1;backgroundOutline=1;" vertex="1" parent="1">
          <mxGeometry x="345" y="372" width="120" height="60" as="geometry" />
        </mxCell>
        <mxCell id="WU6ywwRd1tSLRIyLuIMa-30" style="edgeStyle=orthogonalEdgeStyle;rounded=0;orthogonalLoop=1;jettySize=auto;html=1;" edge="1" parent="1" source="WU6ywwRd1tSLRIyLuIMa-25" target="WU6ywwRd1tSLRIyLuIMa-26">
          <mxGeometry relative="1" as="geometry" />
        </mxCell>
        <mxCell id="WU6ywwRd1tSLRIyLuIMa-25" value="Pilih Operator" style="rounded=0;whiteSpace=wrap;html=1;" vertex="1" parent="1">
          <mxGeometry x="150" y="280" width="120" height="60" as="geometry" />
        </mxCell>
        <mxCell id="WU6ywwRd1tSLRIyLuIMa-37" style="edgeStyle=orthogonalEdgeStyle;rounded=0;orthogonalLoop=1;jettySize=auto;html=1;entryX=0;entryY=0.5;entryDx=0;entryDy=0;" edge="1" parent="1" source="WU6ywwRd1tSLRIyLuIMa-26" target="WU6ywwRd1tSLRIyLuIMa-24">
          <mxGeometry relative="1" as="geometry" />
        </mxCell>
        <mxCell id="WU6ywwRd1tSLRIyLuIMa-26" value="Tambah" style="strokeWidth=2;html=1;shape=mxgraph.flowchart.decision;whiteSpace=wrap;" vertex="1" parent="1">
          <mxGeometry x="160" y="360" width="100" height="84" as="geometry" />
        </mxCell>
        <mxCell id="WU6ywwRd1tSLRIyLuIMa-38" style="edgeStyle=orthogonalEdgeStyle;rounded=0;orthogonalLoop=1;jettySize=auto;html=1;entryX=0;entryY=0.5;entryDx=0;entryDy=0;" edge="1" parent="1" source="WU6ywwRd1tSLRIyLuIMa-27" target="WU6ywwRd1tSLRIyLuIMa-34">
          <mxGeometry relative="1" as="geometry" />
        </mxCell>
        <mxCell id="WU6ywwRd1tSLRIyLuIMa-27" value="Kurang" style="strokeWidth=2;html=1;shape=mxgraph.flowchart.decision;whiteSpace=wrap;" vertex="1" parent="1">
          <mxGeometry x="160" y="460" width="100" height="84" as="geometry" />
        </mxCell>
        <mxCell id="WU6ywwRd1tSLRIyLuIMa-39" style="edgeStyle=orthogonalEdgeStyle;rounded=0;orthogonalLoop=1;jettySize=auto;html=1;entryX=0;entryY=0.5;entryDx=0;entryDy=0;" edge="1" parent="1" source="WU6ywwRd1tSLRIyLuIMa-28" target="WU6ywwRd1tSLRIyLuIMa-35">
          <mxGeometry relative="1" as="geometry" />
        </mxCell>
        <mxCell id="WU6ywwRd1tSLRIyLuIMa-28" value="Kali" style="strokeWidth=2;html=1;shape=mxgraph.flowchart.decision;whiteSpace=wrap;" vertex="1" parent="1">
          <mxGeometry x="160" y="560" width="100" height="84" as="geometry" />
        </mxCell>
        <mxCell id="WU6ywwRd1tSLRIyLuIMa-40" style="edgeStyle=orthogonalEdgeStyle;rounded=0;orthogonalLoop=1;jettySize=auto;html=1;" edge="1" parent="1" source="WU6ywwRd1tSLRIyLuIMa-29" target="WU6ywwRd1tSLRIyLuIMa-36">
          <mxGeometry relative="1" as="geometry" />
        </mxCell>
        <mxCell id="WU6ywwRd1tSLRIyLuIMa-29" value="Bagi" style="strokeWidth=2;html=1;shape=mxgraph.flowchart.decision;whiteSpace=wrap;" vertex="1" parent="1">
          <mxGeometry x="160" y="668" width="100" height="84" as="geometry" />
        </mxCell>
        <mxCell id="WU6ywwRd1tSLRIyLuIMa-31" style="edgeStyle=orthogonalEdgeStyle;rounded=0;orthogonalLoop=1;jettySize=auto;html=1;entryX=0.5;entryY=0;entryDx=0;entryDy=0;entryPerimeter=0;" edge="1" parent="1" source="WU6ywwRd1tSLRIyLuIMa-26" target="WU6ywwRd1tSLRIyLuIMa-27">
          <mxGeometry relative="1" as="geometry" />
        </mxCell>
        <mxCell id="WU6ywwRd1tSLRIyLuIMa-32" style="edgeStyle=orthogonalEdgeStyle;rounded=0;orthogonalLoop=1;jettySize=auto;html=1;entryX=0.5;entryY=0;entryDx=0;entryDy=0;entryPerimeter=0;" edge="1" parent="1" source="WU6ywwRd1tSLRIyLuIMa-27" target="WU6ywwRd1tSLRIyLuIMa-28">
          <mxGeometry relative="1" as="geometry" />
        </mxCell>
        <mxCell id="WU6ywwRd1tSLRIyLuIMa-33" style="edgeStyle=orthogonalEdgeStyle;rounded=0;orthogonalLoop=1;jettySize=auto;html=1;entryX=0.5;entryY=0;entryDx=0;entryDy=0;entryPerimeter=0;" edge="1" parent="1" source="WU6ywwRd1tSLRIyLuIMa-28" target="WU6ywwRd1tSLRIyLuIMa-29">
          <mxGeometry relative="1" as="geometry" />
        </mxCell>
        <mxCell id="WU6ywwRd1tSLRIyLuIMa-42" style="edgeStyle=orthogonalEdgeStyle;rounded=0;orthogonalLoop=1;jettySize=auto;html=1;" edge="1" parent="1" source="WU6ywwRd1tSLRIyLuIMa-34" target="WU6ywwRd1tSLRIyLuIMa-14">
          <mxGeometry relative="1" as="geometry" />
        </mxCell>
        <mxCell id="WU6ywwRd1tSLRIyLuIMa-34" value="kurang angka1, angka2,&amp;nbsp;&lt;div&gt;angka3, angka4, angka5&lt;/div&gt;" style="shape=process;whiteSpace=wrap;html=1;backgroundOutline=1;" vertex="1" parent="1">
          <mxGeometry x="345" y="472" width="120" height="60" as="geometry" />
        </mxCell>
        <mxCell id="WU6ywwRd1tSLRIyLuIMa-43" style="edgeStyle=orthogonalEdgeStyle;rounded=0;orthogonalLoop=1;jettySize=auto;html=1;" edge="1" parent="1" source="WU6ywwRd1tSLRIyLuIMa-35" target="WU6ywwRd1tSLRIyLuIMa-14">
          <mxGeometry relative="1" as="geometry" />
        </mxCell>
        <mxCell id="WU6ywwRd1tSLRIyLuIMa-35" value="kali angka1, angka2,&amp;nbsp;&lt;div&gt;angka3, angka4, angka5&lt;/div&gt;" style="shape=process;whiteSpace=wrap;html=1;backgroundOutline=1;" vertex="1" parent="1">
          <mxGeometry x="345" y="572" width="120" height="60" as="geometry" />
        </mxCell>
        <mxCell id="WU6ywwRd1tSLRIyLuIMa-36" value="bagi angka1, angka2,&amp;nbsp;&lt;div&gt;angka3, angka4, angka5&lt;/div&gt;" style="shape=process;whiteSpace=wrap;html=1;backgroundOutline=1;" vertex="1" parent="1">
          <mxGeometry x="345" y="680" width="120" height="60" as="geometry" />
        </mxCell>
        <mxCell id="WU6ywwRd1tSLRIyLuIMa-44" style="edgeStyle=orthogonalEdgeStyle;rounded=0;orthogonalLoop=1;jettySize=auto;html=1;entryX=0.5;entryY=1;entryDx=0;entryDy=0;entryPerimeter=0;" edge="1" parent="1" source="WU6ywwRd1tSLRIyLuIMa-36" target="WU6ywwRd1tSLRIyLuIMa-14">
          <mxGeometry relative="1" as="geometry" />
        </mxCell>
        <mxCell id="WU6ywwRd1tSLRIyLuIMa-45" value="End" style="strokeWidth=2;html=1;shape=mxgraph.flowchart.start_1;whiteSpace=wrap;" vertex="1" parent="1">
          <mxGeometry x="820" y="520" width="100" height="60" as="geometry" />
        </mxCell>
        <mxCell id="WU6ywwRd1tSLRIyLuIMa-46" style="edgeStyle=orthogonalEdgeStyle;rounded=0;orthogonalLoop=1;jettySize=auto;html=1;entryX=0;entryY=0.5;entryDx=0;entryDy=0;entryPerimeter=0;" edge="1" parent="1" source="WU6ywwRd1tSLRIyLuIMa-14" target="WU6ywwRd1tSLRIyLuIMa-45">
          <mxGeometry relative="1" as="geometry" />
        </mxCell>
      </root>
    </mxGraphModel>
  </diagram>
</mxfile>
